<svg id="Layer_1" data-name="Layer 1" xmlns="http://www.w3.org/2000/svg" xmlns:xlink="http://www.w3.org/1999/xlink" viewBox="0 0 4000 4000"><defs><style>.cls-1,.cls-18{fill:none;}.cls-1{clip-rule:evenodd;}.cls-2{clip-path:url(#clip-path);}.cls-3{fill:url(#linear-gradient);}.cls-4{fill:#005b50;}.cls-11,.cls-14,.cls-15,.cls-16,.cls-17,.cls-4,.cls-7,.cls-8{fill-rule:evenodd;}.cls-11,.cls-17,.cls-4,.cls-7,.cls-8{opacity:0.3;}.cls-5{clip-path:url(#clip-path-2);}.cls-6{fill:url(#linear-gradient-2);}.cls-7{fill:#3e005d;}.cls-8{fill:#1e003d;}.cls-9{clip-path:url(#clip-path-3);}.cls-10{fill:url(#linear-gradient-3);}.cls-11,.cls-16{fill:#8a0028;}.cls-12{clip-path:url(#clip-path-4);}.cls-13{fill:url(#linear-gradient-4);}.cls-14{fill:#ff0;}.cls-14,.cls-15,.cls-16{opacity:0.28;}.cls-15,.cls-17{fill:#fff;}</style><clipPath id="clip-path" transform="translate(-108.22 0)"><path class="cls-1" d="M2108.22,1376c485.73,0,879.49,393.76,879.49,879.49S2594,3135,2108.22,3135s-879.49-393.76-879.49-879.49S1622.49,1376,2108.22,1376m0-254.87c626.49,0,1134.37,507.88,1134.37,1134.37S2734.71,3389.84,2108.22,3389.84,973.85,2882,973.85,2255.48,1481.73,1121.11,2108.22,1121.11Z"/></clipPath><linearGradient id="linear-gradient" x1="1892.99" y1="91.78" x2="2095.97" y2="4196.07" gradientUnits="userSpaceOnUse"><stop offset="0" stop-color="#ecf955"/><stop offset="1" stop-color="#1a85f8"/></linearGradient><clipPath id="clip-path-2" transform="translate(-108.22 0)"><path class="cls-1" d="M2085,1092.78l-240.67-58.15L930.5,3566.76s329.86,23.56,612.6-471.23S2226.39,1328.4,2226.39,1328.4Z"/></clipPath><linearGradient id="linear-gradient-2" x1="2561.2" y1="636.39" x2="80.54" y2="4447.46" gradientUnits="userSpaceOnUse"><stop offset="0" stop-color="#f0f"/><stop offset="1" stop-color="aqua"/></linearGradient><clipPath id="clip-path-3" transform="translate(-108.22 0)"><path class="cls-1" d="M1532.28,2433.62,3688,1909.26s164.93,565.48-377,730.41S507.17,3158,507.17,3158s-20.63-116.94,60.73-257.88c185.93-322.09,631.54-385.56,964.37-466.52"/></clipPath><linearGradient id="linear-gradient-3" x1="5425.47" y1="2044.4" x2="-1420.81" y2="3040.1" gradientUnits="userSpaceOnUse"><stop offset="0" stop-color="#f0f"/><stop offset="0.48" stop-color="#ff7a85"/><stop offset="1" stop-color="#ff0"/></linearGradient><clipPath id="clip-path-4" transform="translate(-108.22 0)"><path class="cls-1" d="M2061.46,433.06l1131,3133.7s-329.86,23.56-612.6-471.23S1744.4,1311.59,1744.4,1311.59Z"/></clipPath><linearGradient id="linear-gradient-4" x1="3009.04" y1="3844.59" x2="1723.75" y2="213.86" xlink:href="#linear-gradient-3"/></defs><title>logo</title><g class="cls-2"><rect class="cls-3" x="865.63" y="1121.11" width="2268.74" height="2268.74"/></g><path class="cls-4" d="M2108.22,1121.11A1135.45,1135.45,0,0,1,2411,1162l80.43,301.61a880.21,880.21,0,0,0-902.15,81.8l112.68-349.31a1131.51,1131.51,0,0,1,406.31-75" transform="translate(-108.22 0)"/><path class="cls-4" d="M3204.71,1964a1135.79,1135.79,0,0,1,37.88,291.49c0,457.84-271.26,852.27-661.81,1031.49-45.27-78.63-86.4-160.52-117.82-226.53,309-136.39,524.76-445.46,524.76-805A880.46,880.46,0,0,0,2958,2028.34Z" transform="translate(-108.22 0)"/><path class="cls-4" d="M1559,3248.18c-282.62-156.71-491.27-430.56-560.36-756,73.4-15.06,166.61-34.45,249.45-52.5,53.8,252.46,215.92,464.8,435.38,586.09-27.19,48.41-79.18,141.09-124.47,222.45" transform="translate(-108.22 0)"/><path class="cls-4" d="M2108.22,1376c485.73,0,879.49,393.76,879.49,879.49S2594,3135,2108.22,3135s-879.49-393.76-879.49-879.49S1622.49,1376,2108.22,1376m0-103c542.6,0,982.47,439.86,982.47,982.46s-439.87,982.47-982.47,982.47-982.47-439.87-982.47-982.47S1565.62,1273,2108.22,1273Z" transform="translate(-108.22 0)"/><g class="cls-5"><rect class="cls-6" x="822.28" y="1034.63" width="1295.89" height="2555.69"/></g><path class="cls-7" d="M1343.88,2421.35l-267.6,741.46,449.27-37.43c5.87-9.76,11.71-19.66,17.54-29.86,113-197.67,244.69-519.42,362.2-834.58Z" transform="translate(-108.22 0)"/><path class="cls-8" d="M2085,1092.78l-240.67-58.15L1708.48,1411.1q132.82,323.18,271.84,644.52c140.74-392.68,246.07-727.22,246.07-727.22Z" transform="translate(-108.22 0)"/><g class="cls-9"><rect class="cls-10" x="378.32" y="1909.26" width="3366.39" height="1248.76"/></g><path class="cls-11" d="M2086.55,2298.8l646-157.13L2934,2731.31c-173,36.91-378.89,76.9-596.62,117.11q-13.53-28.31-26.9-56.62c-68.14-144.12-133.84-289.48-198.42-435.23q-12.79-28.86-25.54-57.77" transform="translate(-108.22 0)"/><g class="cls-12"><rect class="cls-13" x="1636.17" y="433.06" width="1448.02" height="3157.26"/></g><path class="cls-14" d="M2219.15,2595q-54.25-118.88-107.07-238.4-12.79-28.86-25.54-57.77l-215.21,52.35-339.06,82.48c-66.62,16.2-137.75,31.71-210.41,48.72-290.39,68-605.25,160.17-754,417.8C486.54,3041.08,507.17,3158,507.17,3158s44.42-263.19,709.7-384.77q21.31-3.89,43.49-7.59c151.75-25.29,315.44-53.84,479-83.09,164.22-29.36,328.26-59.43,479.83-87.6" transform="translate(-108.22 0)"/><path class="cls-15" d="M1737.19,2383.78l-204.91,49.84c-66.62,16.2-137.75,31.71-210.41,48.72-290.39,68-605.25,160.17-754,417.8C486.54,3041.08,507.17,3158,507.17,3158s44.42-263.19,709.7-384.77q21.31-3.89,43.49-7.59c151.75-25.29,315.44-53.84,479-83.09,102.87-18.4,205.67-37.07,305.39-55.38,0,0-501.61,67.78-784.35,91.34s-235.62-94.25-141.37-141.37,329.87-47.12,518.36-23.56c0,0-106.6-80.48,99.84-169.82" transform="translate(-108.22 0)"/><path class="cls-16" d="M2934,2731.31h0c159-33.91,290.08-65.2,377-91.65,541.92-164.93,377-730.41,377-730.41-22.78,439.49-754.76,550.1-754.76,550.1s-31.18,6.08-86.43,16.75l-44.9,8.65,92,255q20.31-4.26,40.05-8.49" transform="translate(-108.22 0)"/><path class="cls-16" d="M2219.15,2595c-151.57,28.17-315.61,58.24-479.83,87.6-163.52,29.25-327.21,57.8-479,83.09q-22.18,3.7-43.49,7.59C898,2831.52,721.8,2922.31,624.67,3001.1c38.5-29.41,187.72-124.17,577.69-187.62,53.89-8.77,112.38-16.94,175.81-24.26,124.37-14.35,235.14-28.7,333.9-42.66,243.7-34.44,414.21-66.48,535.24-90.19,36.57-7.16,68.62-13.57,96.81-19q-14.42-29.83-29-60.25-47,8.79-96,17.89" transform="translate(-108.22 0)"/><path class="cls-8" d="M1980.32,2055.62h0c14-39,27.63-77.49,40.85-115.11-48.16-107.2-92.84-207.89-131.65-296q-20.11,49.08-41.1,102.48c-69.75,177.37-146,387.51-223.31,606.69q-11,31.22-22.06,62.67l268.29-65.26q12.66-33.28,25.14-66.6h0c28.91-77.14,57-154.09,83.83-228.93" transform="translate(-108.22 0)"/><path class="cls-7" d="M1605.52,2977.88c-73.78,12.59-146.25,24.85-216.58,36.65q-27.54,63.6-56,117.93c-192.57,369.71-402.45,434.3-402.45,434.3s329.86,23.56,612.6-471.23l.56-1h0c20.1-35.21,40.78-74.34,61.86-116.64" transform="translate(-108.22 0)"/><path class="cls-11" d="M3192.42,3566.76c-194.86-181.87-404-514.13-552.51-775.68-120.84-212.84-201.47-378.84-201.47-378.84l-84.68-178.44L2102.6,1704.56,2068.15,1632q15.14,42,30.48,84.28c66.47,183.16,135.11,368.16,198.45,531.32,33.23,85.6,65,165.18,94.23,235.34,43.44,104.24,97.27,214.88,156.21,326,133.31,251.41,292.7,505.39,416.66,693.61,132.52,71,228.24,64.2,228.24,64.2" transform="translate(-108.22 0)"/><path class="cls-17" d="M1850.75,1016.91l-6.4,17.72-25.78,71.44L2068.14,1632v0l34.45,72.58,251.16,529.24,84.68,178.44s80.63,166,201.47,378.84c148.47,261.54,357.65,593.81,552.51,775.68L2894,2739.8l-92-255-119.43-330.92-621-1720.78Z" transform="translate(-108.22 0)"/><path class="cls-17" d="M1850.75,1016.91l-6.4,17.72-25.78,71.44L2068.14,1632v0l34.45,72.58,251.16,529.24,84.68,178.44s20.29,41.77,55.76,110.26c0,0-267.82-581.49-314.94-817.11s70.69-306.31,235.62-47.12,523,1203.32,523,1203.32h0L2894,2739.8l-92-255-119.43-330.92-621-1720.78Z" transform="translate(-108.22 0)"/><rect class="cls-18" width="4000" height="4000"/></svg>